<svg width="30" height="30" viewBox="0 0 30 30" fill="none" xmlns="http://www.w3.org/2000/svg">
<path d="M25.5654 9.78499C25.4424 9.86199 22.5144 11.487 22.5144 15.09C22.6524 19.199 26.2094 20.64 26.2704 20.64C26.2094 20.717 25.7334 22.603 24.3234 24.58C23.2044 26.283 21.9624 28 20.0764 28C18.2824 28 17.6384 26.865 15.5684 26.865C13.3454 26.865 12.7164 28 11.0144 28C9.12841 28 7.79441 26.191 6.61441 24.504C5.08141 22.296 3.77841 18.831 3.73241 15.504C3.70141 13.741 4.03941 12.008 4.89741 10.536C6.10841 8.48099 8.27041 7.08599 10.6314 7.03999C12.4404 6.97899 14.0504 8.28199 15.1544 8.28199C16.2124 8.28199 18.1904 7.03999 20.4284 7.03999C21.3944 7.04099 23.9704 7.33199 25.5654 9.78499ZM15.0014 6.68799C14.6794 5.07799 15.5684 3.46799 16.3964 2.44099C17.4544 1.19899 19.1254 0.355988 20.5664 0.355988C20.6584 1.96599 20.0754 3.54499 19.0334 4.69499C18.0984 5.93699 16.4884 6.87199 15.0014 6.68799Z" fill="#887DFF"/>
</svg>
