<svg width="32" height="32" viewBox="0 0 32 32" fill="none" xmlns="http://www.w3.org/2000/svg">
<mask id="mask0_7563_85099" style="mask-type:alpha" maskUnits="userSpaceOnUse" x="0" y="0" width="32" height="32">
<path d="M19.8281 1.4375L18.1719 2.5625L23.7891 10.7344L25.4375 9.60156L19.8281 1.4375ZM15.3906 4.90625L14.0781 6.41406L21.8359 13.1641L23.1484 11.6562L15.3906 4.90625ZM12.4531 9.60938L11.5469 11.3906L20.4219 15.9062L21.3281 14.125L12.4531 9.60938ZM10.7266 14.2812L10.2734 16.2188L19.9531 18.4844L20.4062 16.5312L10.7266 14.2812ZM6 18V28H24V18H22V26H8V18H6ZM10.0625 18.5L9.9375 20.5L19.9453 21.1328L20.0703 19.1406L10.0625 18.5ZM10 22V24H20V22H10Z" fill="#A3A3B1"/>
</mask>
<g mask="url(#mask0_7563_85099)">
<rect width="32" height="32" fill="#464753"/>
</g>
</svg>
