<svg width="50" height="48" viewBox="0 0 50 48" fill="none" xmlns="http://www.w3.org/2000/svg">
<path d="M21.875 9V15H20.3125C17.7734 15 15.625 17.0625 15.625 19.5C15.625 21.9375 17.7734 24 20.3125 24H26.5625C27.3682 24 28.125 24.7266 28.125 25.5C28.125 26.2734 27.3682 27 26.5625 27H15.625V30H21.875V36H25V30H26.5625C29.1016 30 31.25 27.9375 31.25 25.5C31.25 23.0625 29.1016 21 26.5625 21H20.3125C19.5068 21 18.75 20.2734 18.75 19.5C18.75 18.7266 19.5068 18 20.3125 18H28.125V15H25V9H21.875Z" fill="#FAFAFA"/>
<path fill-rule="evenodd" clip-rule="evenodd" d="M23.4375 39C32.9299 39 40.625 31.6127 40.625 22.5C40.625 13.3873 32.9299 6 23.4375 6C13.9451 6 6.25 13.3873 6.25 22.5C6.25 31.6127 13.9451 39 23.4375 39ZM23.4375 42C34.6558 42 43.75 33.2696 43.75 22.5C43.75 11.7304 34.6558 3 23.4375 3C12.2192 3 3.125 11.7304 3.125 22.5C3.125 33.2696 12.2192 42 23.4375 42Z" fill="#FAFAFA"/>
</svg>
