<svg width="32" height="32" viewBox="0 0 32 32" fill="none" xmlns="http://www.w3.org/2000/svg">
<mask id="mask0_7563_85078" style="mask-type:alpha" maskUnits="userSpaceOnUse" x="0" y="0" width="32" height="32">
<path d="M16 2C8.28077 2 2 8.28077 2 16C2 23.7192 8.28077 30 16 30C23.7192 30 30 23.7192 30 16C30 8.28077 23.7192 2 16 2ZM16 4.15385C22.5552 4.15385 27.8462 9.44479 27.8462 16C27.8462 21.9583 23.7186 26.8576 18 27.7031V19.4243H21.0944L21.6202 16.0294H18V14C18 12.5892 18.2091 11.5072 19.5294 11.5072H21.6496V8.54147C21.277 8.49193 20.4899 8.38161 18.9994 8.38161C15.8892 8.38161 14 9.97499 14 13.7162V16L10.8678 16.0252V19.4243H14V27.7031C8.37043 26.7817 4.15385 21.8952 4.15385 16C4.15385 9.44479 9.44479 4.15385 16 4.15385Z" fill="#A3A3B1"/>
</mask>
<g mask="url(#mask0_7563_85078)">
<rect width="32" height="32" fill="#464753"/>
</g>
</svg>
