<svg width="40" height="36" viewBox="0 0 40 36" fill="none" xmlns="http://www.w3.org/2000/svg">
<path d="M10.9082 0.400024C4.8832 0.400024 0 5.0879 0 10.8719C0 20.9397 12.165 30.5597 17.8483 34.8438C17.8537 34.848 17.8591 34.8521 17.8646 34.8563C17.9035 34.8856 17.9565 34.9274 17.9948 34.9563L17.998 34.9531C18.5747 35.3714 19.2773 35.5984 20 35.6C20.7238 35.5991 21.4277 35.3721 22.0052 34.9531V34.9563C22.0164 34.9478 22.033 34.9366 22.0443 34.9281C22.0528 34.9217 22.065 34.9128 22.0736 34.9063C22.0845 34.897 22.0953 34.8876 22.1061 34.8781C27.7718 30.6095 40 20.9638 40 10.8719C40 5.0879 35.1168 0.400024 29.0918 0.400024C23.3335 0.400024 20 5.20002 20 5.20002C20 5.20002 16.6665 0.400024 10.9082 0.400024Z" fill="#FAFAFA"/>
</svg>
