<svg width="50" height="32" viewBox="0 0 50 32" fill="none" xmlns="http://www.w3.org/2000/svg">
<path d="M4 0.600098C1.80078 0.600098 0 2.32885 0 4.4401V27.4801C0 29.5913 1.80078 31.3201 4 31.3201H46C48.1992 31.3201 50 29.5913 50 27.4801V4.4401C50 2.32885 48.1992 0.600098 46 0.600098H4ZM4 2.5201H46C47.1172 2.5201 48 3.3676 48 4.4401V27.4801C48 28.5526 47.1172 29.4001 46 29.4001H4C2.88281 29.4001 2 28.5526 2 27.4801V4.4401C2 3.3676 2.88281 2.5201 4 2.5201ZM8 8.2801V23.6401H12V13.4101L17 19.8001L22 13.4101V23.6401H26V8.2801H22L17 14.7301L12 8.2801H8ZM35 8.2801V15.9601H30L37 23.6401L44 15.9601H39V8.2801H35Z" fill="#5C53F3"/>
</svg>
