<svg width="48" height="45" viewBox="0 0 48 45" fill="none" xmlns="http://www.w3.org/2000/svg">
<path d="M22.542 0V6.07031C14.3145 6.79687 7.74707 13.1016 6.99024 21H0.666992V24H6.99024C7.74707 31.8984 14.3145 38.2031 22.542 38.918V45H25.667V38.918C33.8945 38.2031 40.4619 31.8984 41.2065 24H47.542V21H41.2065C40.4619 13.1016 33.8945 6.79687 25.667 6.07031V0H22.542ZM24.1045 9C31.8926 9 38.167 15.0234 38.167 22.5C38.167 29.9766 31.8926 36 24.1045 36C16.3164 36 10.042 29.9766 10.042 22.5C10.042 15.0234 16.3164 9 24.1045 9ZM24.1045 18C21.5166 18 19.417 20.0156 19.417 22.5C19.417 24.9844 21.5166 27 24.1045 27C26.6924 27 28.792 24.9844 28.792 22.5C28.792 20.0156 26.6924 18 24.1045 18Z" fill="#5C53F3"/>
</svg>
