<svg width="50" height="48" viewBox="0 0 50 48" fill="none" xmlns="http://www.w3.org/2000/svg">
<path d="M18.75 3C14.6354 3 11.4138 3.79662 9.24683 5.87695C7.07981 7.95729 6.25 11.05 6.25 15C6.25 18.722 3.38418 21 0 21V24C3.38418 24 6.25 26.278 6.25 30C6.25 33.95 7.07981 37.0427 9.24683 39.123C11.4138 41.2034 14.6354 42 18.75 42V39C15.0521 39 12.8049 38.2966 11.4563 37.002C10.1077 35.7073 9.375 33.55 9.375 30C9.375 26.2927 6.90875 23.9213 3.89404 22.5C6.90874 21.0787 9.375 18.7073 9.375 15C9.375 11.45 10.1077 9.29271 11.4563 7.99805C12.8049 6.70338 15.0521 6 18.75 6V3ZM28.125 3V6C31.8229 6 34.0701 6.70338 35.4187 7.99805C36.7673 9.29271 37.5 11.45 37.5 15C37.5 18.7073 39.9663 21.0787 42.981 22.5C39.9663 23.9213 37.5 26.2927 37.5 30C37.5 33.55 36.7673 35.7073 35.4187 37.002C34.0701 38.2966 31.8229 39 28.125 39V42C32.2396 42 35.4612 41.2034 37.6282 39.123C39.7952 37.0427 40.625 33.95 40.625 30C40.625 26.278 43.4908 24 46.875 24V21C43.4908 21 40.625 18.722 40.625 15C40.625 11.05 39.7952 7.95729 37.6282 5.87695C35.4612 3.79662 32.2396 3 28.125 3Z" fill="#5C53F3"/>
</svg>
