<svg width="32" height="32" viewBox="0 0 32 32" fill="none" xmlns="http://www.w3.org/2000/svg">
<mask id="mask0_7563_85092" style="mask-type:alpha" maskUnits="userSpaceOnUse" x="0" y="0" width="32" height="32">
<path d="M9.54688 2C5.39063 2 2 5.39063 2 9.54688V20.4609C2 24.6094 5.39063 28 9.54688 28H20.4609C24.6094 28 28 24.6094 28 20.4531V9.54688C28 5.39063 24.6094 2 20.4531 2H9.54688ZM9.54688 4H20.4531C23.5312 4 26 6.46875 26 9.54688V20.4531C26 23.5312 23.5312 26 20.4609 26H9.54688C6.46875 26 4 23.5312 4 20.4609V9.54688C4 6.46875 6.46875 4 9.54688 4ZM23 6C22.4453 6 22 6.44531 22 7C22 7.55469 22.4453 8 23 8C23.5547 8 24 7.55469 24 7C24 6.44531 23.5547 6 23 6ZM15 8C11.1484 8 8 11.1484 8 15C8 18.8516 11.1484 22 15 22C18.8516 22 22 18.8516 22 15C22 11.1484 18.8516 8 15 8ZM15 10C17.7734 10 20 12.2266 20 15C20 17.7734 17.7734 20 15 20C12.2266 20 10 17.7734 10 15C10 12.2266 12.2266 10 15 10Z" fill="#A3A3B1"/>
</mask>
<g mask="url(#mask0_7563_85092)">
<rect width="32" height="32" fill="#464753"/>
</g>
</svg>
