<svg width="32" height="32" viewBox="0 0 32 32" fill="none" xmlns="http://www.w3.org/2000/svg">
<mask id="mask0_7563_85106" style="mask-type:alpha" maskUnits="userSpaceOnUse" x="0" y="0" width="32" height="32">
<path d="M5.51563 2C3.58594 2 2 3.58594 2 5.51563V24.4922C2 26.4141 3.58594 28 5.51563 28H24.4922C26.4141 28 28 26.4141 28 24.4922V5.51563C28 3.58594 26.4141 2 24.4922 2H5.51563ZM5.51563 4H24.4922C25.3359 4 26 4.66406 26 5.51563V24.4922C26 25.3359 25.3359 26 24.4922 26H5.51563C4.66406 26 4 25.3359 4 24.4922V5.51563C4 4.66406 4.66406 4 5.51563 4ZM8 6C6.89844 6 6 6.89844 6 8C6 9.10156 6.89844 10 8 10C9.10156 10 10 9.10156 10 8C10 6.89844 9.10156 6 8 6ZM6 12V24H10V12H6ZM12 12V24H16V18.6406C16 16.9766 16.1562 15.4844 18.1562 15.4844C20.125 15.4844 20 17.2734 20 18.75V24H24V18.0781C24 14.6406 23.2812 12 19.3828 12C17.5078 12 16.5625 12.75 16.0469 13.75H16V12H12Z" fill="#A3A3B1"/>
</mask>
<g mask="url(#mask0_7563_85106)">
<rect width="32" height="32" fill="#464753"/>
</g>
</svg>
