<svg width="30" height="30" viewBox="0 0 30 30" fill="none" xmlns="http://www.w3.org/2000/svg">
<path d="M13.418 3C7.41597 3 4 7 4 14C4 18.092 6.32405 25.22 2.99805 27H6C7.069 25.369 6.7207 23.0234 6.7207 23.0234C6.7207 23.0234 5.45312 21.3009 5.45312 20.3809C5.45312 18.6939 6.77344 17.7734 6.77344 17.7734C6.77344 17.7734 5.51562 16.5559 5.51562 14.4629C5.51562 12.6529 6.96727 11.834 7.69727 11.834C10.3833 11.834 10.5176 14.998 10.5176 14.998H13.0488C13.0488 14.998 12.8891 11.5488 16.1641 11.5488C17.2691 11.5488 19.1562 12.5212 19.1562 15.0742C19.1562 16.5152 18.7305 17.4004 18.7305 17.4004C18.7305 17.4004 20.3809 18.2819 20.3809 19.8379C20.3809 21.3419 19.2227 22.6016 19.2227 22.6016L21 27H27C27 27 24 25.5458 24 13.7988C24 11.5828 24.12 3 13.418 3ZM17.0977 5.44727C17.4032 5.44152 17.7574 5.54345 18.0859 5.75195C18.7429 6.16895 19.0523 6.85702 18.7773 7.29102C18.5023 7.72402 17.7468 7.73927 17.0898 7.32227C16.4328 6.90527 16.1225 6.21425 16.3965 5.78125C16.534 5.56475 16.7922 5.45302 17.0977 5.44727ZM7.95312 13.7969C7.34513 13.7969 6.61914 14.2581 6.61914 15.5781C6.61914 16.7591 8.16406 17.8027 8.16406 17.8027C8.16406 17.8027 6.05469 18.8065 6.05469 20.3945C6.05469 21.2665 6.97123 22.164 7.86523 22.877C8.75323 23.603 9.88344 25 11.3984 25C13.5564 25 15.3564 23.2481 16.3164 22.6641C17.2764 22.0801 19.2129 21.1396 19.2129 19.8086C19.2129 18.2146 16.248 17.7461 16.248 17.7461C16.248 17.7461 17.6895 17.261 17.6895 15.707C17.6895 14.608 16.9937 13.7988 16.0938 13.7988C14.7928 13.7988 14.4473 15.051 14.4473 15.707C14.4473 16.45 14.748 17.1602 14.748 17.1602C14.748 17.1602 13.1771 16.2324 11.4141 16.2324C10.4701 16.2324 9.41797 16.8574 9.41797 16.8574C9.41797 16.8574 9.51172 16.3502 9.51172 15.7832C9.51172 15.2062 9.19012 13.7969 7.95312 13.7969ZM10.5176 17.0996C10.8366 17.0436 10.4815 17.6636 10.1055 18.0566C9.96047 18.2066 9.46786 17.7496 9.50586 17.6426C9.55686 17.5296 10.0336 17.1996 10.5176 17.0996ZM12.2773 17.1016C12.515 17.1001 13.0252 17.2406 13.293 17.3809C13.493 17.4869 13.4373 18.0464 13.2363 18.1484C12.9733 18.2794 12.1504 17.3793 12.1504 17.1543C12.1501 17.117 12.1981 17.1021 12.2773 17.1016ZM17.9902 19.8008C17.9902 19.8008 14.3614 23.4004 11.3984 23.4004C8.86744 23.4004 6.67773 20.6621 6.67773 20.6621C6.67773 20.6621 9.16744 22.1992 11.3984 22.1992C13.9484 22.1992 17.9902 19.8008 17.9902 19.8008Z" fill="#887DFF"/>
</svg>
