<svg width="126" height="32" viewBox="0 0 126 32" fill="none" xmlns="http://www.w3.org/2000/svg">
<path d="M17.0127 31.9421C16.6655 31.9421 16.3761 32 16.0289 32C7.17541 32 0 24.8246 0 15.9711C0 7.17541 7.17541 0 15.9711 0C16.3183 0 16.6655 0 16.9548 0.0578662V31.9421H17.0127ZM24.9982 17.1863C24.9982 12.8463 28.123 10.358 31.6528 10.358C33.3309 10.358 34.6618 10.9946 35.5298 11.8626L34.0253 13.7722C33.3309 13.1356 32.6365 12.8463 31.7685 12.8463C29.6275 12.8463 28.1808 14.5823 28.1808 17.1863C28.1808 19.7902 29.6275 21.4684 31.7107 21.4684C32.8101 21.4684 33.6781 20.9476 34.4304 20.3689L35.7034 22.2785C34.4882 23.3779 32.868 23.9566 31.3635 23.9566C27.7758 23.9566 24.9982 21.4684 24.9982 17.1863ZM38.6546 23.6673V10.7052H41.2007L41.4322 13.0199H41.5479C42.4738 11.3418 43.9204 10.4159 45.3092 10.4159C46.0036 10.4159 46.4087 10.4738 46.8137 10.7052L46.2929 13.2514C45.83 13.1356 45.4828 13.0199 44.9042 13.0199C43.8626 13.0199 42.5895 13.7143 41.7794 15.6817V23.6094H38.6546V23.6673ZM47.7975 20.1953C47.7975 17.4177 50.17 15.9711 55.6094 15.3924C55.6094 14.0036 54.9729 12.8463 53.2369 12.8463C51.906 12.8463 50.6908 13.425 49.5335 14.1193L48.3761 12.094C49.8228 11.1682 51.6745 10.4159 53.8156 10.4159C57.1139 10.4159 58.7342 12.3834 58.7342 16.0289V23.7251H56.1302L55.8987 22.2785H55.8409C54.6835 23.2622 53.2948 24.0145 51.7324 24.0145C49.4177 23.9566 47.7975 22.4521 47.7975 20.1953ZM50.8065 19.9638C50.8065 21.1212 51.6166 21.642 52.7161 21.642C53.8156 21.642 54.6257 21.1212 55.6094 20.1953V17.302C52.0217 17.7071 50.8065 18.6329 50.8065 19.9638ZM65.0416 23.6673L61.5118 10.7052H64.6365L66.1989 17.4756C66.4883 18.6908 66.6618 19.906 66.8933 21.179H67.009C67.2405 19.906 67.5298 18.6908 67.8192 17.4756L69.5552 10.7052H72.3906L74.1266 17.4756C74.4738 18.6908 74.7052 19.906 74.9946 21.179H75.1103C75.3418 19.906 75.5732 18.6908 75.8047 17.4756L77.3671 10.7052H80.2604L76.9042 23.6673H73.2007L71.6383 17.5913C71.349 16.3761 71.1175 15.1609 70.8282 13.83H70.7125C70.481 15.2188 70.2495 16.434 69.9024 17.6492L68.3978 23.6673H65.0416ZM83.3852 20.311V4.97649H86.5099V20.4846C86.5099 21.2369 86.8571 21.4684 87.2043 21.4684C87.3201 21.4684 87.4358 21.4684 87.6673 21.4105L88.0723 23.6673C87.6673 23.8409 87.1465 23.9566 86.4521 23.9566C84.1953 23.9566 83.3852 22.5678 83.3852 20.311ZM90.1555 17.1863C90.1555 12.962 93.1646 10.358 96.2315 10.358C99.8192 10.358 101.729 12.9042 101.729 16.4919C101.729 17.0705 101.671 17.5913 101.613 17.9385H93.2224C93.5118 20.311 95.0163 21.642 97.1573 21.642C98.3146 21.642 99.2405 21.2948 100.224 20.7161L101.266 22.6257C99.9928 23.4358 98.4304 24.0145 96.7523 24.0145C93.0488 23.9566 90.1555 21.4684 90.1555 17.1863ZM93.1646 16.0289H99.0669C99.0669 13.9458 98.1989 12.7306 96.3472 12.7306C94.7848 12.7306 93.4539 13.83 93.1646 16.0289ZM103.754 22.1627L105.201 20.1953C106.358 21.1212 107.515 21.642 108.846 21.642C110.293 21.642 110.929 21.0054 110.929 20.0796C110.929 18.9801 109.483 18.5172 108.094 17.9964C106.358 17.3599 104.391 16.3761 104.391 14.2351C104.391 11.9783 106.242 10.358 109.193 10.358C111.045 10.358 112.492 11.1103 113.591 11.9204L112.145 13.7722C111.219 13.1356 110.293 12.6727 109.251 12.6727C107.92 12.6727 107.284 13.3092 107.284 14.1193C107.284 15.1031 108.615 15.566 110.061 16.0289C111.855 16.6655 113.881 17.5335 113.881 19.9638C113.881 22.1627 112.087 23.9566 108.731 23.9566C106.937 23.9566 105.027 23.2043 103.754 22.1627ZM115.732 22.1627L117.179 20.1953C118.336 21.1212 119.494 21.642 120.825 21.642C122.271 21.642 122.908 21.0054 122.908 20.0796C122.908 18.9801 121.461 18.5172 120.072 17.9964C118.336 17.3599 116.369 16.3761 116.369 14.2351C116.369 11.9783 118.221 10.358 121.172 10.358C123.024 10.358 124.47 11.1103 125.57 11.9204L124.123 13.7722C123.197 13.1356 122.271 12.6727 121.23 12.6727C119.899 12.6727 119.262 13.3092 119.262 14.1193C119.262 15.1031 120.593 15.566 122.04 16.0289C123.834 16.6655 125.859 17.5335 125.859 19.9638C125.859 22.1627 124.065 23.9566 120.709 23.9566C118.973 23.9566 117.063 23.2043 115.732 22.1627Z" fill="#FAFAFA"/>
</svg>
