<svg width="32" height="32" viewBox="0 0 32 32" fill="none" xmlns="http://www.w3.org/2000/svg">
<mask id="mask0_7563_85021" style="mask-type:alpha" maskUnits="userSpaceOnUse" x="0" y="0" width="32" height="32">
<path d="M26.6176 9.27303C27.0337 8.75089 26.6466 8 26 8H23.9005C23.4888 8 23.0959 8.18842 22.8402 8.51553L13.9999 20L10.0591 14.5142C9.93299 14.3542 9.7723 14.2249 9.58908 14.1358C9.40569 14.0467 9.20375 14.0002 8.99984 14H6.99984C6.34234 14 5.97444 14.7582 6.38122 15.2741L12.5899 23.7774C13.1311 24.4623 14.4584 24.4576 15 23.7774L26.6176 9.27303Z" fill="#A3A3B1"/>
</mask>
<g mask="url(#mask0_7563_85021)">
<rect width="32" height="32" fill="#464753"/>
</g>
<rect x="0.5" y="0.5" width="31" height="31" rx="15.5" stroke="#464753"/>
</svg>
