<svg width="411" height="135" viewBox="0 0 411 135" fill="none" xmlns="http://www.w3.org/2000/svg">
<path d="M338.448 49.043L406.583 27.1812L410.393 39.0583L342.258 60.9201L338.448 49.043Z" fill="#4D41CB"/>
<path fill-rule="evenodd" clip-rule="evenodd" d="M218.939 -57.3361L253.391 -77.2557L253.968 -76.2575L220.515 -56.915L281.743 48.9813L280.745 49.5584L218.939 -57.3361Z" fill="#887DFF"/>
<path d="M257.284 107.05L194.73 25.9475L155.833 47.942L257.284 107.05Z" fill="#5C53F3"/>
<path d="M-13.884 24.3984C-7.5687 27.5455 -3.63239 26.9052 1.35084 26.0965C6.90748 25.194 13.2028 24.1685 22.1815 28.6425C31.1579 33.1165 34.1319 38.762 36.7553 43.7426C39.1082 48.2097 40.9675 51.7374 47.2829 54.8853C53.5974 58.0333 57.5337 57.3929 62.5169 56.5819C68.072 55.6787 74.3697 54.6532 83.3453 59.1279C92.3202 63.6012 95.2941 69.2459 97.9175 74.2257C100.271 78.6936 102.13 82.222 108.444 85.3684L104.33 93.6253C95.3541 89.1513 92.3801 83.5066 89.7567 78.526C87.403 74.0597 85.5452 70.5312 79.2314 67.3841C72.9169 64.2361 68.9806 64.8765 63.9974 65.6875C58.4415 66.5907 52.1446 67.6162 43.169 63.1415C34.1926 58.6682 31.2186 53.0227 28.5952 48.0421C26.2416 43.575 24.3822 40.0466 18.0669 36.8994C11.75 33.7507 7.8145 34.3911 2.83127 35.2013C-2.72383 36.1053 -9.02069 37.13 -17.9994 32.6545L-13.884 24.3984Z" fill="#4D41CB"/>
</svg>
