<svg width="421" height="512" viewBox="0 0 421 512" fill="none" xmlns="http://www.w3.org/2000/svg">
<path d="M383.545 29.1831C386.816 16.9779 388.083 4.70958 387.556 -7.27573L166.303 -66.5603C159.855 -56.4439 154.817 -45.1859 151.547 -32.9807C134.362 31.156 172.365 97.0651 236.43 114.231C300.494 131.397 366.36 93.3198 383.545 29.1831Z" fill="#4D41CB"/>
<path fill-rule="evenodd" clip-rule="evenodd" d="M267.864 90.175L251.772 129.798L278.693 131.536L267.864 90.175Z" fill="#2D2763"/>
<path fill-rule="evenodd" clip-rule="evenodd" d="M271.887 89.7645L255.556 133.077L282.476 134.815L271.887 89.7645Z" fill="#5C53F3"/>
<path fill-rule="evenodd" clip-rule="evenodd" d="M241.271 31.845L239.698 12.2026L239.713 12.2058C243.397 13.0136 247.081 13.8214 250.765 14.6285L251.224 12.5374L239.52 9.97132L239.449 9.08848C239.089 5.12018 238.122 1.14951 236.178 -2.32786C235.135 -4.19453 233.748 -5.97854 231.81 -6.68319C229.976 -7.34966 227.967 -6.71059 226.456 -5.59249C224.972 -4.49478 223.565 -2.99138 222.878 -1.17524C221.979 1.20309 222.791 3.69918 224.306 5.5206C226.689 8.38752 230.052 10.1179 233.607 10.8674L237.512 11.7234L239.137 32.0163L241.271 31.845ZM234.31 -1.28197C236.145 2.00071 236.983 5.60977 237.316 9.27192C237.322 9.34519 237.328 9.41891 237.333 9.49263L234.058 8.77428C232.248 8.39273 230.501 7.69153 228.939 6.69793C227.517 5.79312 226.152 4.67801 225.284 3.21418C224.321 1.58783 224.58 -0.247521 225.514 -1.60919C226.376 -2.86449 228.062 -4.84866 230.175 -4.8358C231.976 -4.82462 233.343 -3.0117 234.31 -1.28197Z" fill="#2D2763"/>
<path fill-rule="evenodd" clip-rule="evenodd" d="M300.203 33.0529L297.12 54.2343L341.419 60.6872L346.151 28.5165L345.771 28.474L348.91 7.36744L285.666 -1.9436L280.939 30.1902L300.203 33.0529ZM343.326 30.3547L343.71 30.3978L339.612 58.2601L299.546 52.4238L302.628 31.2484L283.367 28.3858L287.471 0.486515L346.478 9.17329L343.326 30.3547Z" fill="#2D2763"/>
<rect x="262.085" y="495.418" width="158.915" height="31.3696" fill="#4D41CB"/>
<path d="M203.726 439.759C209.649 439.759 214.451 444.558 214.451 450.478C214.451 456.397 209.649 461.196 203.726 461.196C197.803 461.196 193 456.397 193 450.478C193 444.558 197.803 439.759 203.726 439.759Z" fill="#4D41CB"/>
<path fill-rule="evenodd" clip-rule="evenodd" d="M97.0456 420.729L132.393 497.367L133.778 496.728L98.4306 420.09L97.0456 420.729Z" fill="#887DFF"/>
<path d="M272.699 390C274.873 390 276.635 391.761 276.635 393.933C276.635 396.106 274.873 397.867 272.699 397.867C270.525 397.867 268.763 396.106 268.763 393.933C268.763 391.761 270.525 390 272.699 390Z" fill="#4D41CB"/>
<path fill-rule="evenodd" clip-rule="evenodd" d="M374.964 251.761L318.787 313.416L379.522 288.083L334.125 348.933L371.697 320.817L374.461 324.51L311.371 371.721L365.756 298.821L301.378 325.674L371.554 248.655L374.964 251.761Z" fill="#4D41CB"/>
<path fill-rule="evenodd" clip-rule="evenodd" d="M71.2497 -55.7814L72.5194 -55.1313L2.01333 82.8115L0.743334 82.1621L71.2497 -55.7814Z" fill="#5C53F3"/>
</svg>
