<svg width="583" height="281" viewBox="0 0 583 281" fill="none" xmlns="http://www.w3.org/2000/svg">
<path fill-rule="evenodd" clip-rule="evenodd" d="M352 295.843H198.689H-30.5039V172.032C-22.4905 166.557 1.75341 162.179 13.936 164.756C49.9065 172.365 46.6722 210.607 60.9741 221.132C84.2275 238.245 115.539 205.9 144.195 216.854C168.64 226.198 162.392 240.653 176.42 245.684C188.099 249.873 193.905 240.258 206.241 241.89C231.708 245.261 232.366 261.847 262.962 269.554C274.219 272.391 297.247 259.675 317.075 267.051C333.642 273.213 340.358 286.246 352 295.843Z" fill="#5C53F3"/>
<mask id="mask0_7569_89196" style="mask-type:luminance" maskUnits="userSpaceOnUse" x="-31" y="163" width="383" height="133">
<path fill-rule="evenodd" clip-rule="evenodd" d="M352 295.843H198.689H-30.5039V172.032C-22.4905 166.557 1.75341 162.179 13.936 164.756C49.9065 172.365 46.6722 210.607 60.9741 221.132C84.2275 238.245 115.539 205.9 144.195 216.854C168.64 226.198 162.392 240.653 176.42 245.684C188.099 249.873 193.905 240.258 206.241 241.89C231.708 245.261 232.366 261.847 262.962 269.554C274.219 272.391 297.247 259.675 317.075 267.051C333.642 273.213 340.358 286.246 352 295.843Z" fill="white"/>
</mask>
<g mask="url(#mask0_7569_89196)">
<path fill-rule="evenodd" clip-rule="evenodd" d="M-6.38123 254.64C-4.69659 253.521 -2.89155 252.733 -1.03599 252.259C-0.574594 252.139 -0.110312 252.043 0.356411 251.963C0.639405 251.914 0.924394 251.874 1.20828 251.839C0.987 251.971 0.767713 252.112 0.549976 252.255C0.146333 252.524 -0.243814 252.81 -0.615163 253.11C-6.90292 258.178 -8.3661 267.363 -3.76587 274.296C0.833263 281.232 9.8557 283.437 16.9586 279.598C17.3787 279.369 17.7905 279.121 18.1968 278.851C18.4145 278.707 18.6265 278.559 18.8338 278.404C18.6918 278.654 18.5439 278.9 18.3903 279.143C18.1369 279.543 17.8677 279.935 17.5786 280.316C16.4239 281.845 14.9972 283.208 13.3152 284.326C5.21581 289.718 -5.76055 287.443 -11.2003 279.246C-16.639 271.045 -14.4806 260.032 -6.38123 254.64ZM-10.4336 278.735C-15.5887 270.964 -13.5446 260.525 -5.86749 255.413C-4.85418 254.742 -3.79861 254.193 -2.71291 253.77C-8.05839 259.307 -9.00589 268.062 -4.53197 274.806C-0.0580483 281.55 8.36951 284.066 15.5374 281.276C14.7275 282.116 13.8138 282.879 12.802 283.553C5.12331 288.662 -5.27858 286.506 -10.4336 278.735Z" fill="#2D2763"/>
<path fill-rule="evenodd" clip-rule="evenodd" d="M138.373 216.78L115.452 230.013L118.749 235.724L125.497 231.828L127.68 235.608L134.082 231.912L136.746 236.526L146.516 230.885L138.373 216.78ZM119.11 234.493L116.699 230.317L138.012 218.012L145.269 230.582L137.106 235.295L134.443 230.681L128.04 234.377L125.858 230.597L119.11 234.493Z" fill="#2D2763"/>
<path fill-rule="evenodd" clip-rule="evenodd" d="M-3.69727 166.514L21.8682 151.754L36.6284 177.32L11.0629 192.08L-3.69727 166.514ZM-2.43886 166.851L0.675601 172.246L6.07207 169.13L2.95761 163.736L-2.43886 166.851ZM6.86946 168.669L3.75501 163.275L9.14882 160.161L12.2633 165.555L6.86946 168.669ZM9.94639 159.7L13.0608 165.095L18.4547 161.981L15.3402 156.586L9.94639 159.7ZM19.2521 161.52L16.1376 156.125L21.5314 153.011L24.6459 158.406L19.2521 161.52ZM25.1064 159.204L19.7126 162.318L22.8272 167.713L28.2211 164.598L25.1064 159.204ZM23.2876 168.51L28.6814 165.396L31.7958 170.79L26.402 173.904L23.2876 168.51ZM32.2564 171.588L26.8625 174.702L29.977 180.096L35.3708 176.982L32.2564 171.588ZM26.065 175.162L29.1794 180.557L23.7856 183.671L20.6712 178.276L26.065 175.162ZM22.9882 184.132L19.8737 178.737L14.4799 181.851L17.5944 187.246L22.9882 184.132ZM13.6823 182.311L16.7967 187.706L11.4003 190.821L8.2858 185.427L13.6823 182.311ZM7.82555 184.629L13.222 181.513L10.1076 176.119L4.71109 179.234L7.82555 184.629ZM9.64689 175.322L4.25042 178.437L1.13581 173.042L6.53228 169.927L9.64689 175.322ZM7.32998 169.466L10.4446 174.86L15.8384 171.746L12.7238 166.351L7.32998 169.466ZM16.6358 171.287L13.5212 165.892L18.915 162.778L22.0296 168.173L16.6358 171.287ZM22.4902 168.97L17.0964 172.084L20.2109 177.479L25.6047 174.365L22.4902 168.97ZM16.2988 172.545L19.4132 177.939L14.0194 181.053L10.905 175.659L16.2988 172.545Z" fill="#2D2763"/>
<path fill-rule="evenodd" clip-rule="evenodd" d="M71.6219 282.119C74.5887 281.795 77.1703 281.714 79.4004 281.819C78.8271 279.818 78.2911 277.484 77.8075 274.764L78.7058 274.591C79.2108 277.433 79.7725 279.842 80.372 281.876C85.8097 282.282 89.0585 283.858 90.7317 285.711C92.4369 287.601 92.5015 289.803 91.4665 291.157C90.6242 292.259 88.6537 293.569 86.3221 292.738C84.0613 291.933 81.6559 289.172 79.6726 282.736C77.4237 282.611 74.7856 282.68 71.7064 283.017L71.6219 282.119ZM90.0468 286.321C88.6177 284.738 85.7342 283.245 80.6544 282.805C82.5955 288.923 84.8366 291.247 86.6436 291.889C88.4742 292.543 90.055 291.523 90.7441 290.621C91.4526 289.697 91.5392 287.971 90.0468 286.321Z" fill="#2D2763"/>
<path fill-rule="evenodd" clip-rule="evenodd" d="M192.951 215.881C190.984 215.351 189.182 214.516 187.584 213.435C187.186 213.165 186.801 212.881 186.432 212.581C186.207 212.401 185.985 212.215 185.768 212.023C186.016 212.101 186.266 212.177 186.522 212.244C186.995 212.37 187.469 212.474 187.944 212.557C195.965 213.944 203.861 209.007 206.009 200.993C208.156 192.979 203.785 184.752 196.146 181.946C195.693 181.78 195.231 181.633 194.757 181.504C194.504 181.436 194.248 181.377 193.994 181.32C194.279 181.263 194.564 181.212 194.847 181.166C195.319 181.094 195.794 181.04 196.273 181.006C198.198 180.868 200.176 181.046 202.144 181.571C211.618 184.109 217.241 193.849 214.702 203.322C212.164 212.796 202.425 218.419 192.951 215.881ZM213.808 203.083C211.402 212.063 202.171 217.393 193.191 214.987C192.008 214.668 190.89 214.233 189.843 213.696C197.589 214.07 204.815 209.028 206.903 201.233C208.992 193.438 205.254 185.456 198.363 181.907C199.535 181.969 200.724 182.149 201.905 182.465C210.885 184.872 216.215 194.103 213.808 203.083Z" fill="#2D2763"/>
<path fill-rule="evenodd" clip-rule="evenodd" d="M64.898 225.416L39.5387 218.619L37.7628 225.242L45.2302 227.243L44.0565 231.625L51.1358 233.525L49.7037 238.871L60.5175 241.77L64.898 225.416ZM38.8923 224.59L40.1898 219.747L63.7681 226.068L59.8665 240.642L50.8332 238.219L52.2653 232.873L45.1833 230.974L46.3571 226.592L38.8923 224.59Z" fill="#2D2763"/>
<path fill-rule="evenodd" clip-rule="evenodd" d="M96.821 169.46C99.1913 171.383 101.106 173.202 102.633 174.906C103.686 173.004 105.009 170.881 106.65 168.512L107.422 169.039C105.705 171.516 104.348 173.711 103.288 175.657C106.898 179.922 108.081 183.456 107.929 186.053C107.771 188.696 106.205 190.379 104.473 190.629C103.059 190.831 100.684 190.368 99.6147 188.051C98.5791 185.806 98.8744 182.003 102.157 175.786C100.634 174.052 98.6849 172.181 96.2262 170.186L96.821 169.46ZM106.991 186.001C107.122 183.788 106.142 180.58 102.813 176.551C99.7297 182.504 99.6431 185.86 100.469 187.655C101.309 189.472 103.189 189.869 104.344 189.701C105.528 189.531 106.854 188.316 106.991 186.001Z" fill="#2D2763"/>
<path fill-rule="evenodd" clip-rule="evenodd" d="M264.015 168.112C266.984 167.787 269.562 167.705 271.794 167.808C271.218 165.808 270.683 163.475 270.199 160.755L271.097 160.582C271.602 163.424 272.164 165.833 272.763 167.867C278.201 168.272 281.449 169.848 283.123 171.701C284.828 173.591 284.894 175.795 283.86 177.145C283.019 178.249 281.046 179.561 278.713 178.728C276.452 177.922 274.047 175.162 272.068 168.728C269.815 168.602 267.177 168.67 264.098 169.007L264.015 168.112ZM282.437 172.31C281.008 170.727 278.125 169.234 273.047 168.798C274.987 174.915 277.229 177.234 279.034 177.878C280.867 178.53 282.447 177.514 283.134 176.61C283.843 175.686 283.929 173.96 282.437 172.31Z" fill="#2D2763"/>
<path fill-rule="evenodd" clip-rule="evenodd" d="M155.67 271.927L184.176 279.565L176.538 308.071L148.032 300.433L155.67 271.927ZM156.321 273.054L154.709 279.069L160.724 280.681L162.336 274.665L156.321 273.054ZM161.613 280.919L163.225 274.904L169.24 276.516L167.628 282.531L161.613 280.919ZM170.129 276.753L168.517 282.769L174.533 284.381L176.145 278.365L170.129 276.753ZM175.422 284.619L177.033 278.604L183.049 280.216L181.437 286.231L175.422 284.619ZM181.199 287.119L175.183 285.507L173.572 291.523L179.587 293.135L181.199 287.119ZM173.333 292.412L179.349 294.023L177.737 300.039L171.722 298.427L173.333 292.412ZM177.499 300.928L171.483 299.316L169.872 305.332L175.887 306.944L177.499 300.928ZM170.595 299.078L168.983 305.094L162.967 303.482L164.579 297.466L170.595 299.078ZM162.079 303.244L163.69 297.228L157.675 295.616L156.063 301.632L162.079 303.244ZM156.786 295.378L155.174 301.394L149.158 299.782L150.77 293.766L156.786 295.378ZM151.008 292.877L157.024 294.489L158.636 288.473L152.62 286.861L151.008 292.877ZM158.874 287.585L152.858 285.973L154.47 279.958L160.486 281.57L158.874 287.585ZM161.375 281.807L159.763 287.823L165.778 289.435L167.39 283.419L161.375 281.807ZM166.667 289.674L168.279 283.658L174.295 285.27L172.683 291.285L166.667 289.674ZM172.445 292.173L166.429 290.562L164.817 296.577L170.833 298.189L172.445 292.173ZM165.54 290.323L163.928 296.339L157.913 294.727L159.525 288.711L165.54 290.323Z" fill="#2D2763"/>
<path fill-rule="evenodd" clip-rule="evenodd" d="M247.785 304.176L270.706 290.943L267.408 285.23L260.66 289.126L258.478 285.347L252.078 289.042L249.415 284.428L239.642 290.071L247.785 304.176ZM267.047 286.461L269.459 290.639L248.146 302.944L240.889 290.373L249.054 285.659L251.718 290.272L258.117 286.577L260.299 290.357L267.047 286.461Z" fill="#2D2763"/>
<path fill-rule="evenodd" clip-rule="evenodd" d="M237.172 244.945C234.202 245.27 231.625 245.352 229.391 245.246C229.964 247.247 230.502 249.584 230.984 252.301L230.088 252.472C229.58 249.632 229.019 247.223 228.422 245.187C222.984 244.782 219.737 243.208 218.062 241.352C216.359 239.465 216.29 237.262 217.325 235.908C218.167 234.806 220.14 233.495 222.472 234.325C224.733 235.131 227.137 237.896 229.119 244.329C231.369 244.456 234.008 244.384 237.087 244.047L237.172 244.945ZM218.747 240.747C220.177 242.326 223.058 243.82 228.14 244.258C226.199 238.141 223.955 235.819 222.148 235.176C220.319 234.525 218.74 235.541 218.05 236.443C217.344 237.369 217.255 239.092 218.747 240.747Z" fill="#2D2763"/>
<path fill-rule="evenodd" clip-rule="evenodd" d="M308.237 197.172C310.203 197.699 312.006 198.537 313.602 199.62C314 199.89 314.385 200.174 314.757 200.472C314.982 200.652 315.204 200.838 315.419 201.032C315.172 200.95 314.92 200.877 314.666 200.81C314.192 200.68 313.716 200.578 313.243 200.494C305.223 199.109 297.326 204.046 295.178 212.061C293.031 220.076 297.401 228.301 305.039 231.111C305.49 231.275 305.955 231.424 306.43 231.55C306.683 231.617 306.937 231.681 307.192 231.733C306.909 231.793 306.624 231.844 306.339 231.887C305.868 231.96 305.392 232.013 304.913 232.047C302.99 232.188 301.009 232.012 299.043 231.485C289.567 228.944 283.945 219.206 286.484 209.732C289.023 200.257 298.763 194.633 308.237 197.172ZM287.379 209.971C289.785 200.99 299.017 195.66 307.998 198.066C309.179 198.383 310.297 198.818 311.345 199.354C303.598 198.981 296.371 204.027 294.284 211.822C292.194 219.615 295.933 227.597 302.824 231.146C301.65 231.089 300.465 230.907 299.282 230.588C290.301 228.182 284.972 218.952 287.379 209.971Z" fill="#2D2763"/>
<path fill-rule="evenodd" clip-rule="evenodd" d="M315.938 271.363L341.503 256.603L356.263 282.169L330.698 296.929L315.938 271.363ZM317.195 271.701L320.309 277.095L325.706 273.979L322.592 268.586L317.195 271.701ZM326.503 273.519L323.389 268.125L328.783 265.011L331.897 270.405L326.503 273.519ZM329.581 264.55L332.695 269.944L338.088 266.83L334.974 261.436L329.581 264.55ZM338.886 266.369L335.772 260.975L341.166 257.861L344.28 263.255L338.886 266.369ZM344.74 264.053L339.346 267.167L342.46 272.561L347.854 269.446L344.74 264.053ZM342.921 273.357L348.315 270.243L351.43 275.64L346.037 278.754L342.921 273.357ZM351.891 276.438L346.497 279.552L349.611 284.946L355.005 281.832L351.891 276.438ZM345.7 280.013L348.814 285.407L343.42 288.521L340.306 283.127L345.7 280.013ZM342.622 288.98L339.508 283.587L334.114 286.701L337.229 292.094L342.622 288.98ZM333.317 287.161L336.431 292.555L331.035 295.671L327.92 290.277L333.317 287.161ZM327.46 289.48L332.856 286.364L329.741 280.968L324.344 284.083L327.46 289.48ZM329.28 280.171L323.884 283.286L320.77 277.892L326.166 274.777L329.28 280.171ZM326.964 274.317L330.078 279.711L335.472 276.596L332.357 271.203L326.964 274.317ZM336.269 276.135L333.155 270.741L338.549 267.627L341.663 273.021L336.269 276.135ZM342.123 273.819L336.73 276.933L339.845 282.33L345.239 279.215L342.123 273.819ZM335.932 277.393L339.048 282.79L333.654 285.904L330.538 280.507L335.932 277.393Z" fill="#2D2763"/>
</g>
<path d="M-25.5917 295.844H-35.415V0.484253H177.658V246.355V246.084C173.38 244.924 170.355 242.641 168.06 239.244L167.834 238.909V10.3076H-25.5917V295.844Z" fill="#4D41CB"/>
<path fill-rule="evenodd" clip-rule="evenodd" d="M378.002 290.361L424.27 327.299L463.673 277.937L417.405 241L378.002 290.361Z" fill="#4D41CB"/>
<path fill-rule="evenodd" clip-rule="evenodd" d="M544.204 273.107C549.088 289.566 555.643 303.632 555.764 303.887L552.883 305.242C552.405 304.224 546.266 291.048 541.48 275.263C528.812 285.1 516.827 291.928 515.906 292.447L514.341 289.677C514.57 289.548 527.357 282.261 540.5 271.923C536.737 258.64 534.226 244.033 536.909 233.466C538.852 225.809 543.85 220.582 550.622 219.126C557.138 217.724 564.221 220.175 568.241 225.229C570.651 228.253 574 234.806 569.373 244.686C564.633 254.809 554.438 264.857 544.204 273.107ZM566.493 243.338C569.382 237.168 569.119 231.439 565.753 227.211C564.112 225.149 561.839 223.617 559.308 222.745C556.771 221.872 553.976 221.659 551.291 222.238C548.033 222.939 542.232 225.432 539.994 234.25C537.57 243.798 539.783 257.216 543.237 269.729C552.84 261.876 562.179 252.546 566.493 243.338Z" fill="#5C53F3"/>
</svg>
