<svg width="50" height="48" viewBox="0 0 50 48" fill="none" xmlns="http://www.w3.org/2000/svg">
<path d="M20.3125 2.99997C19.751 2.98825 19.2261 3.28122 18.9453 3.73825C18.6523 4.207 18.6523 4.79294 18.9453 5.26169C19.2261 5.71872 19.751 6.01169 20.3125 5.99997H21.875V9.07029C13.1348 9.84372 6.25 16.9101 6.25 25.5C6.25 34.5937 13.9648 42 23.4375 42C32.9102 42 40.625 34.5937 40.625 25.5C40.625 16.9101 33.7402 9.84372 25 9.07029V5.99997H26.5625C27.124 6.01169 27.6489 5.71872 27.9297 5.26169C28.2227 4.79294 28.2227 4.207 27.9297 3.73825C27.6489 3.28122 27.124 2.98825 26.5625 2.99997H20.3125ZM35.9253 8.97654C35.2783 8.98826 34.7046 9.35154 34.4727 9.92576C34.2285 10.4883 34.375 11.1328 34.8267 11.5547L38.147 14.7422C38.5498 15.1406 39.1235 15.2929 39.6729 15.164C40.2222 15.0234 40.6494 14.6133 40.7959 14.0859C40.9302 13.5586 40.7715 13.0078 40.3686 12.6328L37.0483 9.44529C36.7432 9.15232 36.3403 8.97654 35.9253 8.97654ZM23.4375 12C31.2256 12 37.5 18.0234 37.5 25.5C37.5 32.9765 31.2256 39 23.4375 39C15.6494 39 9.375 32.9765 9.375 25.5C9.375 18.0234 15.6494 12 23.4375 12ZM17.1631 17.9765C16.5283 17.9883 15.9546 18.3515 15.7227 18.9258C15.4785 19.4883 15.625 20.1328 16.0889 20.5547L22.3389 26.5547C22.7295 26.9531 23.3032 27.1054 23.8525 26.9765C24.4019 26.8359 24.8291 26.4258 24.9756 25.8984C25.1099 25.3711 24.9512 24.8203 24.5361 24.4453L18.2861 18.4453C17.9932 18.1523 17.5903 17.9765 17.1631 17.9765Z" fill="#FAFAFA"/>
</svg>
