<svg width="32" height="32" viewBox="0 0 32 32" fill="none" xmlns="http://www.w3.org/2000/svg">
<mask id="mask0_7563_85085" style="mask-type:alpha" maskUnits="userSpaceOnUse" x="0" y="0" width="32" height="32">
<path d="M30 6.59375C28.9531 7.04688 27.8984 7.38281 26.7344 7.49219C27.8984 6.82031 28.8359 5.6875 29.2969 4.45313C28.1328 5.125 26.9688 5.57813 25.6875 5.80469C24.5156 4.67969 23 4 21.3672 4C18.2188 4 15.6484 6.48438 15.6484 9.53125C15.6484 9.97656 15.6484 10.4297 15.7656 10.7734C9.75 10.7734 5.625 7.38281 2.82813 4C2.24219 4.78906 2.00781 5.80469 2.00781 6.82031C2.00781 8.73438 3.0625 10.4297 4.57813 11.4453C3.64063 11.3359 2.71094 11.1094 2.00781 10.7734C2.00781 10.7734 2.00781 10.7734 2.00781 10.8828C2.00781 13.5938 3.99219 15.8438 6.5625 16.2969C6.09375 16.4063 5.625 16.5234 5.03906 16.5234C4.69531 16.5234 4.34375 16.5234 3.99219 16.4141C4.69531 18.6719 7.95313 21.2656 10.5156 21.2656C8.53125 22.7266 6.6875 24 3 24C2.53125 24 2.90625 24 2 24C4.5625 25.5781 7.60156 26 10.75 26C21.3672 26 27.0859 17.5391 27.0859 10.2031C27.0859 9.97656 27.0859 9.75781 27.0859 9.53125C28.25 8.73438 29.1875 7.72656 30 6.59375Z" fill="#A3A3B1"/>
</mask>
<g mask="url(#mask0_7563_85085)">
<rect width="32" height="32" fill="#464753"/>
</g>
</svg>
