<svg width="30" height="30" viewBox="0 0 30 30" fill="none" xmlns="http://www.w3.org/2000/svg">
<path d="M26 4C25.933 4.00047 25.8663 4.00767 25.8008 4.02148L25.7988 4.01953L15.75 5.39062V14H27V5C27 4.73478 26.8946 4.48043 26.7071 4.29289C26.5196 4.10536 26.2652 4 26 4ZM13.7422 5.66211L3.86914 7.00977C3.62887 7.04148 3.4083 7.15937 3.24843 7.34151C3.08857 7.52365 3.00028 7.75765 3 8V14H13.7422V5.66211ZM3 16V22C3.00022 22.2478 3.09245 22.4867 3.25881 22.6704C3.42517 22.8541 3.6538 22.9695 3.90039 22.9941L13.7422 24.3379V16H3ZM15.75 16V24.6094L25.7988 25.9805C25.7995 25.9805 25.8001 25.9805 25.8008 25.9805C25.8664 25.9936 25.9331 26.0002 26 26C26.2652 26 26.5196 25.8946 26.7071 25.7071C26.8946 25.5196 27 25.2652 27 25V16H15.75Z" fill="#887DFF"/>
</svg>
